<?xml version="1.0" encoding="utf-8"?>
<!-- Generator: Adobe Illustrator 21.0.0, SVG Export Plug-In . SVG Version: 6.00 Build 0)  -->
<svg version="1.1" id="Layer_1" xmlns="http://www.w3.org/2000/svg" xmlns:xlink="http://www.w3.org/1999/xlink" x="0px" y="0px"
	 viewBox="0 0 181.1 110" style="enable-background:new 0 0 181.1 110;" xml:space="preserve">
<style type="text/css">
	.st0{clip-path:url(#SVGID_2_);fill:#00B3BB;}
	.st1{clip-path:url(#SVGID_2_);fill:#FFFFFF;}
	.st2{fill:#FFFFFF;}
	.st3{clip-path:url(#SVGID_4_);fill:#FFFFFF;}
</style>
<g>
	<defs>
		<rect id="SVGID_1_" width="181.1" height="110"/>
	</defs>
	<clipPath id="SVGID_2_">
		<use xlink:href="#SVGID_1_"  style="overflow:visible;"/>
	</clipPath>
	<path class="st0" d="M126.2,110c30.4,0,55-24.6,55-55 M181.2,55c0-30.4-24.6-55-55-55C93.6,0,83.4,25.5,69.2,25.5
		c-10.1,0-15.9-8.8-31-8.8C17.1,16.7,0,33.9,0,55s17.1,38.3,38.3,38.3c15,0,20.8-8.8,31-8.8c14.1,0,24.3,25.5,56.9,25.5"/>
	<path class="st1" d="M40.2,37.9c0.2,0.1,0.4,0.2,0.6,0.3c0.6,0.3,0.8,1,0.6,1.5c-0.1,0.4-0.3,0.8-0.6,1.1c-0.5,0.7-1.1,1.3-1.6,2
		c-0.9,1.1-1.7,2.3-2.5,3.5c-8,12.5-7,16.6-9.5,16.1c-0.4-0.1-0.8-0.2-1.1-0.3c-0.4-0.2-0.6-0.6-0.6-1c-0.1-3.3-0.9-3.3-1.5-8.3
		c-0.3-2.2-0.3-4.6-0.3-4.6c-3.4,6.4-6.6,12.2-6.3,13.3c0,0.1,0,0.2,0,0.3c-0.4,0.8-1.2,1.2-2.1,1.1c-0.3,0-0.6-0.1-0.9-0.2
		c-0.8-0.2-1-0.7-0.8-1.5c0.2-0.5,0.4-1,0.7-1.4c3-5.3,8.1-13.4,8.2-16.6c0-0.1,0-0.2,0.2-0.2c1.2-0.3,3.2-0.1,3.3,1.5
		c0.1,0.9,0.1,1.8,0.2,2.7c0.3,4.7,0.1,5.6,1.6,10.4c0.3-0.5,0.5-1,0.7-1.5c3.1-6.6,8.4-16.3,10.2-17.6c0.3-0.2,0.6-0.3,0.9-0.4
		H40.2z"/>
	<path class="st1" d="M40.5,54.3C40.5,54.3,40.5,54.3,40.5,54.3c0.2,0,0.3,0,0.4-0.1c1.5-0.6,3.2-1.3,4.2-2.4
		c0.1-0.1,0.1-0.3,0.1-0.4c0-0.2-0.2-0.2-0.4-0.2c-0.1,0-0.3,0-0.4,0.1c-1.3,0.4-2.4,1.1-3.2,2.1C40.8,53.7,40.7,54,40.5,54.3
		 M61.3,58.9c-0.9,1.1-1.8,2.2-3.1,2.9c-0.4,0.2-0.9,0.4-1.4,0.4c-0.4,0-0.8-0.1-1.1-0.4c-1-0.9-1.3-2.3-1.6-3.7
		c-2.1,1.4-4.2,2.6-6.8,3.5c-4.1,1.3-9.4,0.8-10-3.5c0,0,0-0.1,0-0.1c0,0,0,0,0,0c-0.4,0-0.8,0-1.2,0c-0.6,0-1.2-0.2-1.7-0.6
		c-1.1-0.9-0.7-2.5,0.6-2.9c0.3,0.6,1.7,0.6,2.4,0.5c0.2,0,0.2-0.1,0.3-0.3c0.4-1.1,1-2.1,1.7-3c1.3-1.6,3.1-2.6,5.1-2.9
		c4.9-0.7,6.8,4.3-4.5,8.6c0.1,0.9,0.8,1.9,2.2,2.2c2.8,0.7,5.8-0.7,8.2-2.3c0.8-0.5,1.6-1,2.3-1.7c0.2-0.2,0.5-0.5,0.7-0.8
		c0.2-0.3,0.3-0.5,0.1-0.9c1.1-0.6,2.7-0.4,3,1.2c0,0,0,1,0.3,2.7c0.1,0.6,0.6,1.1,1.1,0.7c0.3-0.3,0.7-0.6,1-1
		c0.6-0.7,1.2-1.5,1.8-2.2c0.2-0.2,0.3-0.5,0.4-0.7c0.1-0.1,0.1-0.2,0.2-0.4c0.7-1.3,2.3-0.8,2.4,0.4c0.1,0.5,0.1,1.1,0.1,1.6
		c0,1,0.2,3.1,1,2.6c0.3-0.2,0.6-0.4,0.8-0.6c1.6-1.8,2.2-2.6,3.1-3.7c0.5-0.6,1.2-0.8,2-0.5c1.1,0.3,2.8,1,4.7-0.3
		c0.7-0.5,1.7-0.4,2.3,0c0.7,0.5,0.8,1.6,0,2.1c-0.3,0.2-0.7,0.4-1.1,0.5c-1.2,0.4-2.4,0.6-3.7,0.5c-3-0.1-1.1-1.3-5.5,3.2
		C64.7,63.2,62.5,63,61.3,58.9"/>
	<path class="st1" d="M82.7,59.2C80.9,57.1,79,55.1,79,53c0-2.3,1.9-3.7,4.2-4.1c6.1-1.2,5.2,2.8,3.3,3c-1.1,0.1-4.9-1.4-4.7,1.5
		c0.1,1.6,1.4,2.7,3.8,5.5c1.4,1.6,0,3.4-1.7,3.3c-0.8-0.1-1.7-0.2-2.5-0.3c-4.9-0.6-6.5-0.3-6.4-1.6c0.1-1.3,1.7-2.3,2-2.1
		C77.9,59.1,81.5,59.5,82.7,59.2"/>
</g>
<rect x="98.2" y="29.9" class="st2" width="9.5" height="46"/>
<g>
	<defs>
		<rect id="SVGID_3_" width="181.1" height="110"/>
	</defs>
	<clipPath id="SVGID_4_">
		<use xlink:href="#SVGID_3_"  style="overflow:visible;"/>
	</clipPath>
	<path class="st3" d="M124.5,63.5c-5.7-6.1-5.4-15.6,0.7-21.3c6.1-5.7,15.6-5.4,21.3,0.7c4.6,4.9,5.3,11.9,2.3,17.5l-6.5-7l-6.9,6.5
		l6.5,7C136.1,69.5,129.1,68.3,124.5,63.5 M160.5,72.8l-5.6-5.9c6.4-9,5.8-21.7-2.1-30.1c-9-9.6-24.1-10-33.6-1
		c-9.6,9-10,24.1-1,33.6c7.9,8.4,20.4,9.8,29.9,3.9l5.6,5.9L160.5,72.8z"/>
</g>
</svg>
