<?xml version="1.0" encoding="utf-8"?>
<!-- Generator: Adobe Illustrator 19.0.0, SVG Export Plug-In . SVG Version: 6.00 Build 0)  -->
<svg version="1.1" id="Layer_1" xmlns="http://www.w3.org/2000/svg" xmlns:xlink="http://www.w3.org/1999/xlink" x="0px" y="0px"
	 viewBox="0 0 453.8 358.3" style="enable-background:new 0 0 453.8 358.3;" xml:space="preserve">
<style type="text/css">
	.st0{fill:none;stroke:#E92A3A;stroke-width:0.9;}
	.st1{fill:none;stroke:#A7A6A6;stroke-width:0.9;}
	.st2{fill:#A7A6A6;}
	.st3{font-family:'UntitledSansTest-Regular';}
	.st4{font-size:11.7px;}
	.st5{fill:none;stroke:#E92A3A;stroke-width:0.86;}
</style>
<rect x="1.4" y="79.3" class="st0" width="103.5" height="73.8"/>
<rect x="10.4" y="88.3" class="st1" width="43.2" height="32"/>
<line class="st1" x1="62.1" y1="87.8" x2="96.2" y2="87.8"/>
<line class="st1" x1="62.1" y1="95.9" x2="96.2" y2="95.9"/>
<line class="st1" x1="62.1" y1="104" x2="96.2" y2="104"/>
<line class="st1" x1="62.1" y1="112.1" x2="96.2" y2="112.1"/>
<line class="st1" x1="62.1" y1="120.2" x2="96.2" y2="120.2"/>
<line class="st1" x1="9.9" y1="128.3" x2="96.2" y2="128.3"/>
<line class="st1" x1="9.9" y1="136.4" x2="96.2" y2="136.4"/>
<line class="st1" x1="9.9" y1="144.5" x2="96.2" y2="144.5"/>
<text transform="matrix(1 0 0 1 91.5151 185.7778)" class="st2 st3 st4"> </text>
<rect x="181.4" y="185" class="st0" width="103.5" height="68.8"/>
<rect x="190.9" y="201.2" class="st1" width="24.3" height="19.8"/>
<rect x="221.4" y="201.2" class="st1" width="24.3" height="19.8"/>
<rect x="250.6" y="201.2" class="st1" width="25.2" height="19.8"/>
<line class="st1" x1="189.9" y1="229.1" x2="276.2" y2="229.1"/>
<line class="st1" x1="189.9" y1="193.1" x2="276.2" y2="193.1"/>
<line class="st1" x1="189.9" y1="237.2" x2="276.2" y2="237.2"/>
<line class="st1" x1="189.9" y1="245.3" x2="276.2" y2="245.3"/>
<path class="st5" d="M228,2c-32.7-7.5-65.2,12.8-72.8,45.5s12.8,65.2,45.5,72.8c32.7,7.5,65.2-12.8,72.8-45.5"/>
<path class="st5" d="M98.3,357.9c30.4-14.2,43.5-50.3,29.4-80.6c-14.2-30.4-50.3-43.5-80.6-29.4c-30.4,14.2-43.5,50.3-29.4,80.6"/>
<path class="st5" d="M324.8,156.1c17.8,28.4,55.2,37.1,83.6,19.3c28.4-17.8,37.1-55.2,19.3-83.6c-17.8-28.4-55.2-37.1-83.6-19.3"/>
<path class="st5" d="M453.4,263.7c-12.6-31.1-47.9-46.1-79-33.5c-31.1,12.6-46.1,47.9-33.5,79c12.6,31.1,47.9,46.1,79,33.5"/>
<line class="st5" x1="105.3" y1="116.8" x2="159.6" y2="86.8"/>
<line class="st5" x1="285" y1="218.3" x2="341" y2="264.8"/>
</svg>
